<svg height="300px" width="300px" fill="#000000" xmlns="http://www.w3.org/2000/svg" xmlns:xlink="http://www.w3.org/1999/xlink" version="1.1" x="0px" y="0px" viewBox="0 0 100 100" enable-background="new 0 0 100 100" xml:space="preserve"><path d="M366.414,168.586L366.414,168.586l-30-30C336.052,138.225,335.552,138,335,138s-1.052,0.225-1.414,0.586l-30,30  c-0.182,0.182-0.328,0.396-0.429,0.635c-0.101,0.24-0.157,0.504-0.157,0.779c0,1.105,0.895,2,2,2c0.275,0,0.539-0.057,0.779-0.157  c0.238-0.101,0.453-0.247,0.635-0.429l4.586-4.586V198c0,2.209,1.791,4,4,4h40c2.209,0,4-1.791,4-4v-31.172l4.586,4.586  c0.362,0.361,0.862,0.586,1.414,0.586c1.105,0,2-0.895,2-2C367,169.448,366.775,168.948,366.414,168.586 M325,198h-10v-4h10V198z   M343,198h-16v-26h16V198z M355,198h-10v-4h10V198z M355,192h-10v-20c0-1.105-0.895-2-2-2h-16c-1.105,0-2,0.895-2,2v20h-10v-29.172  l20-20l20,20V192z M339,186c0.552,0,1-0.448,1-1s-0.448-1-1-1s-1,0.448-1,1S338.448,186,339,186"/><path d="M25.5,36.5c3.726,0,6.848-2.551,7.738-6H79.5c1.104,0,2-0.895,2-2c0-1.104-0.896-2-2-2H33.238c-0.89-3.449-4.013-6-7.738-6  c-4.418,0-8,3.582-8,8S21.082,36.5,25.5,36.5 M25.5,24.5c2.209,0,4,1.791,4,4s-1.791,4-4,4s-4-1.791-4-4S23.291,24.5,25.5,24.5   M79.5,66.5H33.238c-0.89-3.449-4.013-6-7.738-6c-4.418,0-8,3.582-8,8s3.582,8,8,8c3.726,0,6.849-2.551,7.738-6H79.5  c1.104,0,2-0.895,2-2S80.604,66.5,79.5,66.5 M25.5,72.5c-2.209,0-4-1.791-4-4s1.791-4,4-4s4,1.791,4,4S27.709,72.5,25.5,72.5   M73.5,40.5c-3.727,0-6.848,2.551-7.738,6H19.5c-1.105,0-2,0.896-2,2c0,1.105,0.895,2,2,2h46.262c0.891,3.449,4.012,6,7.738,6  c4.418,0,8-3.582,8-8S77.918,40.5,73.5,40.5 M73.5,52.5c-2.209,0-4-1.791-4-4s1.791-4,4-4s4,1.791,4,4S75.709,52.5,73.5,52.5"/></svg>